<svg height="32" viewBox="0 0 32 32" width="32" xmlns="http://www.w3.org/2000/svg"><path d="m20.6381516 20-2.2175822 1.9827889.0993775-.0005185-.0199469.0177306h-3.3785069l1.6966971-.0088521-2.2671862-.010839-2.2443512-1.9803099zm1.1184157-1 3.2434327-2.9000244v-8.09134983c0-.55704863-.4547089-1.00862577-.9999602-1.00862577h-15.0000796c-.55226277 0-.9999602.44373571-.9999602 1.00207596v8.19793624l3.1733195 2.7999878zm-8.6656582-13 3.4090909-3 3.4090909 3h4.0934872c1.1064965 0 1.9974219.89525812 1.9974219 1.99961498v3.36038502l3 2.64v14.0059397c0 1.0995465-.89704 1.9940603-2.0035949 1.9940603h-20.99281024c-1.11383162 0-2.00359486-.8927712-2.00359486-1.9940603v-14.0059397l3-2.64v-3.36038502c0-1.11218169.89427625-1.99961498 1.99742191-1.99961498zm5.3369258 0-1.9278349-1.69999981-1.9278349 1.69999981zm7.5721651 6.6772727 1.5 1.3227273-1.5 1.3333335zm-19 2.6560608-1.5-1.3333335 1.5-1.3227272zm6.5 7.6666665-7 6h20l-7-6zm14.18514 5.7251701-7.68514-6.7080803 8-7.0170898v6.5000199 6.5000199c0 .2831139-.1210051.5418171-.31486.7251303zm-22.37028 0 7.68514-6.7080803-8-7.0170898v6.5000199 6.5000199c0 .2831139.12100514.5418171.31486.7251303zm4.68514-18.7251701v1h13v-1zm0 3v1h13v-1zm0 3v1h13v-1z" fill-rule="evenodd"/></svg>