<svg height="24" viewBox="0 0 24 24" width="24" xmlns="http://www.w3.org/2000/svg"><path d="m16.0000028 10.0274647c2.2499739.2487234 3.9999972 2.1562594 3.9999972 4.4725353v9c0 .2761424-.2238576.5-.5.5s-.5-.2238576-.5-.5v-9c0-1.7632351-1.3038517-3.2219393-2.9999975-3.4645552l-.0000021 5.9645553c-.0000003 1.1045696-.8954309 1.9999999-2.0000004 1.9999999-.8929361 0-1.6818384-.2396386-2.3516105-.7194096-.2547133-.1824562-.5601677-.2805703-.8738917-.2805704-.2571753-.00002-.4637479.1488691-.537327.3696064-.1109449.3328347-.044372.6571725.1617596.8890706l3.4747743 3.9091211c.183459.2063914.1648686.5224276-.0415228.7058866s-.5224276.1648686-.7058866-.0415228l-2.5263717-2.8421682c-.0322873.0065487-.065704.0099863-.0999236.0099863h-4c-1.38071187 0-2.5-1.1192881-2.5-2.5v-16.00003803c0-1.38071188 1.11928813-2.5 2.49999996-2.5l7.00000614-.0000006c1.3807119.00000041 2.4999997 1.11928887 2.4999993 2.50000077zm-6.34848173 9.8955962c-.44376971-.499241-.58709081-1.1974905-.37586272-1.8311748.22252231-.6675669.81123375-1.0918861 1.47474615-1.0918859.5466998.0000199 1.0557931.1635443 1.4803175.4676395.4952291.3547423 1.0799563.5323603 1.769278.5323603.5522849 0 1.0000003-.4477153 1.0000004-1.0000002l.000005-14.50003798c.0000002-.82842713-.6715724-1.5000002-1.4999994-1.50000045l-7.000006.0000006c-.82842712 0-1.5.67157287-1.5 1.5v16.00003803c0 .8284271.67157288 1.5 1.5 1.5h3.21991141zm-1.15152107-16.9230609c-.27614237 0-.5-.22385763-.5-.5s.22385763-.5.5-.5h3c.2761424 0 .5.22385763.5.5s-.2238576.5-.5.5z"/></svg>