<svg viewBox="0 0 1034 1063.18" xmlns="http://www.w3.org/2000/svg"><path d="M96.484 21.333h937.074v1024H96.484zM965.29 89.6H164.75v887.467h800.54zM608.485 195.185c90.738 0 164.295 73.557 164.295 164.295S699.22 523.775 608.483 523.775c-90.738 0-164.295-73.557-164.295-164.295.103-90.696 73.598-164.192 164.284-164.295h.01zm0 260.324c53.035 0 96.028-42.994 96.028-96.03s-42.993-96.027-96.028-96.027c-53.035 0-96.028 42.993-96.028 96.028.052 53.015 43.014 95.978 96.023 96.03h.004zm183.682 258.684l-9.648-45.92c-16.903-81.99-88.497-142.757-174.285-142.757S450.85 586.285 434.147 667.123l-.2 1.15v.32l-9.556 45.51-66.81-14.017 9.513-45.51C390.5 541.113 489.58 457.023 608.303 457.023s217.802 84.09 240.933 195.958l.275 1.592 9.513 45.51zM260.78 263.452H0v-68.267h260.78zm0 217.088H0v-68.267h260.78zm0 217.088H0V629.36h260.78zm0 217.543H0v-68.266h260.78z"/></svg>