<?xml version="1.0" standalone="no"?>
<!DOCTYPE svg PUBLIC "-//W3C//DTD SVG 20010904//EN"
 "http://www.w3.org/TR/2001/REC-SVG-20010904/DTD/svg10.dtd">
<svg version="1.0" xmlns="http://www.w3.org/2000/svg"
 width="128.000000pt" height="128.000000pt" viewBox="0 0 128.000000 128.000000"
 preserveAspectRatio="xMidYMid meet">

<g transform="translate(0.000000,128.000000) scale(0.100000,-0.100000)"
fill="#000000" stroke="none">
<path d="M436 1258 c-10 -39 -7 -68 8 -68 14 0 27 55 19 78 -8 19 -20 14 -27
-10z"/>
<path d="M360 1234 c0 -29 16 -64 30 -64 14 0 12 34 -2 65 -15 32 -28 32 -28
-1z"/>
<path d="M511 1231 c-22 -30 -28 -61 -12 -61 15 0 51 51 51 71 0 27 -16 23
-39 -10z"/>
<path d="M553 1170 c-36 -22 -43 -40 -15 -40 24 0 62 28 62 46 0 19 -9 18 -47
-6z"/>
<path d="M410 1140 c-36 -36 -16 -90 34 -90 48 0 73 62 38 93 -25 22 -48 21
-72 -3z"/>
<path d="M367 1023 c-15 -14 -7 -43 12 -43 26 0 36 17 21 35 -14 16 -23 19
-33 8z"/>
<path d="M323 934 c-8 -21 13 -42 28 -27 13 13 5 43 -11 43 -6 0 -13 -7 -17
-16z"/>
<path d="M284 869 c-9 -15 11 -33 30 -26 9 4 13 13 10 22 -7 17 -30 20 -40 4z"/>
<path d="M245 811 c-9 -16 3 -31 26 -31 14 0 19 6 17 17 -4 20 -33 29 -43 14z"/>
<path d="M197 793 c-4 -3 -7 -24 -7 -46 l0 -40 -45 6 c-58 8 -66 -7 -15 -33
22 -11 40 -23 40 -26 0 -3 -9 -19 -21 -36 -28 -39 -16 -47 32 -21 l40 22 15
-34 c20 -49 34 -43 34 13 l0 48 46 12 c43 12 53 32 14 32 -10 0 -25 3 -34 6
-14 6 -14 9 1 35 23 38 11 46 -31 20 l-35 -22 -7 36 c-6 34 -14 42 -27 28z"/>
<path d="M304 615 c-4 -9 -2 -21 4 -27 15 -15 44 -1 40 19 -4 23 -36 29 -44 8z"/>
<path d="M384 575 c-8 -21 3 -47 19 -43 6 3 13 14 15 25 4 24 -26 40 -34 18z"/>
<path d="M447 534 c-11 -11 5 -34 24 -34 12 0 19 7 19 20 0 19 -28 28 -43 14z"/>
<path d="M514 499 c-10 -17 23 -46 37 -32 7 7 9 19 6 27 -7 18 -33 21 -43 5z"/>
<path d="M590 470 c-18 -11 -4 -40 20 -40 13 0 20 7 20 19 0 22 -21 33 -40 21z"/>
<path d="M906 463 c-4 -10 -10 -46 -13 -80 -7 -70 -1 -66 -116 -79 -36 -4 -56
-11 -54 -18 2 -6 35 -23 73 -38 38 -15 68 -31 67 -36 -1 -5 -21 -40 -44 -76
-58 -93 -43 -101 55 -31 42 30 79 55 81 55 1 0 6 -12 9 -27 11 -45 48 -133 56
-133 9 0 20 75 20 132 0 34 3 39 18 33 93 -39 112 -45 112 -31 0 8 -19 30 -42
50 l-43 36 55 49 55 50 -63 1 c-56 0 -63 2 -58 18 13 43 17 110 8 116 -6 3
-29 -16 -52 -44 -23 -27 -45 -50 -48 -50 -4 0 -16 26 -28 57 -21 60 -37 75
-48 46z"/>
<path d="M664 425 c-7 -18 3 -35 21 -35 18 0 26 15 19 34 -8 20 -33 21 -40 1z"/>
<path d="M739 394 c-10 -12 -9 -18 3 -31 19 -18 38 -10 38 17 0 24 -25 33 -41
14z"/>
<path d="M810 355 c0 -18 24 -30 39 -21 16 10 1 36 -20 36 -10 0 -19 -7 -19
-15z"/>
</g>
</svg>
