<svg height="16" viewBox="0 0 16 16" width="16" xmlns="http://www.w3.org/2000/svg"><path d="m13.156 9.211c-.213-.21-.686-.321-1.406-.331-.487-.005-1.073.038-1.69.124-.276-.159-.561-.333-.784-.542-.601-.561-1.103-1.34-1.415-2.197.02-.08.038-.15.054-.222 0 0 .339-1.923.249-2.573-.012-.089-.02-.115-.044-.184l-.029-.076c-.092-.212-.273-.437-.556-.425l-.171-.005c-.316 0-.573.161-.64.403-.205.757.007 1.889.39 3.355l-.098.239c-.275.67-.619 1.345-.923 1.94l-.04.077c-.32.626-.61 1.157-.873 1.607l-.271.144c-.02.01-.485.257-.594.323-.926.553-1.539 1.18-1.641 1.678-.032.159-.008.362.156.456l.263.132c.114.057.234.086.357.086.659 0 1.425-.821 2.48-2.662 1.218-.396 2.604-.726 3.819-.908.926.521 2.065.883 2.783.883.128 0 .238-.012.327-.036.138-.037.254-.115.325-.222.139-.21.168-.499.13-.795-.011-.088-.081-.196-.157-.271zm-9.849 3.509c.12-.329.596-.979 1.3-1.556.044-.036.153-.138.253-.233-.736 1.174-1.229 1.642-1.553 1.788zm4.169-9.6c.212 0 .333.534.343 1.035s-.107.853-.252 1.113c-.12-.385-.179-.992-.179-1.389 0 0-.009-.759.088-.759zm-1.244 6.841c.148-.264.301-.543.458-.839.383-.724.624-1.29.804-1.755.358.651.804 1.205 1.328 1.649.065.055.135.111.207.166-1.066.211-1.987.467-2.798.779zm6.72-.06c-.065.041-.251.064-.37.064-.386 0-.864-.176-1.533-.464.257-.019.493-.029.705-.029.387 0 .502-.002.88.095s.383.293.318.333z"/><path d="m14.341 3.579c-.347-.473-.831-1.027-1.362-1.558s-1.085-1.015-1.558-1.362c-.806-.591-1.197-.659-1.421-.659h-7.75c-.689 0-1.25.561-1.25 1.25v13.5c0 .689.561 1.25 1.25 1.25h11.5c.689 0 1.25-.561 1.25-1.25v-9.75c0-.224-.068-.615-.659-1.421zm-2.07-.85c.48.48.856.912 1.134 1.271h-2.406v-2.405c.359.278.792.654 1.271 1.134zm1.729 12.021c0 .136-.114.25-.25.25h-11.5c-.135 0-.25-.114-.25-.25v-13.5c0-.135.115-.25.25-.25h7.75v3.5c0 .276.224.5.5.5h3.5z"/></svg>